<svg xmlns="http://www.w3.org/2000/svg" viewBox="0 0 640 260" role="img" aria-label="Recursos Humanos">
  <defs><linearGradient id="bg" x1="0" x2="1" y1="0" y2="1"><stop stop-color="#f6f0ff"/><stop offset="1" stop-color="#eef6ff"/></linearGradient></defs>
  <rect width="640" height="260" rx="26" fill="url(#bg)"/>
  <circle cx="318" cy="88" r="44" fill="#2256d8"/>
  <circle cx="218" cy="116" r="34" fill="#17a6a1"/>
  <circle cx="424" cy="116" r="34" fill="#c8a96a"/>
  <path d="M232 214c12-48 46-72 86-72s74 24 86 72z" fill="#102338"/>
  <path d="M134 214c10-34 38-54 84-54 23 0 43 7 58 20-18 8-33 19-45 34z" fill="#1f5ea8" opacity=".82"/>
  <path d="M406 214c-12-15-27-26-45-34 15-13 35-20 63-20 38 0 68 20 82 54z" fill="#17a6a1" opacity=".82"/>
</svg>
