<svg xmlns="http://www.w3.org/2000/svg" viewBox="0 0 640 260" role="img" aria-label="Punto de venta">
  <defs>
    <linearGradient id="bg" x1="0" x2="1" y1="0" y2="1">
      <stop offset="0" stop-color="#eef7ff"/>
      <stop offset="1" stop-color="#f9fbff"/>
    </linearGradient>
    <linearGradient id="screen" x1="0" x2="1">
      <stop offset="0" stop-color="#1f6feb"/>
      <stop offset="1" stop-color="#233b8f"/>
    </linearGradient>
    <filter id="shadow" x="-20%" y="-20%" width="140%" height="150%">
      <feDropShadow dx="0" dy="14" stdDeviation="14" flood-color="#1b3d6d" flood-opacity=".18"/>
    </filter>
  </defs>
  <rect width="640" height="260" rx="26" fill="url(#bg)"/>
  <path d="M0 205c92-38 156-22 238-3 103 24 192 27 402-50v108H0z" fill="#e4eefb"/>
  <g filter="url(#shadow)">
    <rect x="104" y="58" width="214" height="122" rx="18" fill="#fff"/>
    <rect x="124" y="78" width="174" height="76" rx="12" fill="url(#screen)"/>
    <path d="M148 102h76M148 125h118" stroke="#fff" stroke-width="9" stroke-linecap="round" opacity=".92"/>
    <rect x="151" y="171" width="116" height="20" rx="10" fill="#d6e3f4"/>
    <rect x="127" y="191" width="165" height="26" rx="13" fill="#102338"/>
  </g>
  <g filter="url(#shadow)">
    <rect x="348" y="72" width="176" height="134" rx="22" fill="#fff"/>
    <rect x="370" y="96" width="132" height="20" rx="10" fill="#e2f3f0"/>
    <rect x="370" y="130" width="38" height="30" rx="9" fill="#1f6feb"/>
    <rect x="417" y="130" width="38" height="30" rx="9" fill="#d9e7fb"/>
    <rect x="464" y="130" width="38" height="30" rx="9" fill="#d9e7fb"/>
    <rect x="370" y="170" width="132" height="14" rx="7" fill="#102338" opacity=".78"/>
  </g>
  <circle cx="540" cy="70" r="18" fill="#2dd4bf" opacity=".82"/>
  <circle cx="86" cy="64" r="10" fill="#1f6feb" opacity=".72"/>
</svg>
